<svg width="532" height="126" viewBox="0 0 532 126" fill="none" xmlns="http://www.w3.org/2000/svg">
<path d="M86.5 23.5H479.1C502.042 23.5 520.5 41.4844 520.5 63.5C520.5 85.5156 502.042 103.5 479.1 103.5H86.5V23.5Z" fill="#41873F" stroke="white" stroke-width="5"/>
<path d="M58.2911 11.2032L56.5528 9.52162L54.8146 11.2032L43.3322 22.3112L27.5137 20.0738L25.119 19.7351L24.7012 22.1172L21.9409 37.853L7.82828 45.3407L5.69186 46.4743L6.75399 48.6471L13.7701 63L6.75399 77.3529L5.69186 79.5257L7.82828 80.6593L21.9409 88.147L24.7012 103.883L25.119 106.265L27.5137 105.926L43.3322 103.689L54.8146 114.797L56.5528 116.478L58.2911 114.797L69.7734 103.689L85.592 105.926L87.9866 106.265L88.4045 103.883L91.1648 88.147L105.277 80.6593L107.414 79.5257L106.352 77.3529L99.3355 63L106.352 48.6471L107.414 46.4743L105.277 45.3407L91.1648 37.853L88.4045 22.1172L87.9866 19.7351L85.592 20.0738L69.7734 22.3112L58.2911 11.2032Z" fill="#41873F" stroke="white" stroke-width="5"/>
<g clip-path="url(#clip0_218_12)">
<path d="M32.8008 64.3502C41.659 64.3502 40.6281 59.1983 43.7754 55.3685C47.3946 50.9667 54.438 49.1077 55.5482 38.6752C56.0006 34.4255 60.2698 36.395 61.6101 38.6297C63.7824 42.2489 61.3189 46.7807 59.4742 50.734C57.8882 54.1335 58.2145 57.8177 62.4564 57.2418C67.5524 56.5502 70.5255 55.7 74.8961 55.7C77.8731 55.7 79.6008 57.7007 79.6008 59.3738C79.6008 60.7375 79.1952 62.9462 79.1952 62.9462C79.1952 62.9462 82.2008 64.0018 82.2008 67.0074C82.2008 69.8518 79.5631 71.2324 79.5631 71.2324C79.5631 71.2324 82.2008 72.2724 82.2008 74.9946C82.2008 78.0639 78.6687 79.3574 78.6687 79.3574C78.6687 79.3574 79.6008 80.6574 79.6008 82.6074C79.6008 84.2896 79.7633 88.1051 63.8786 88.1051C42.7549 88.1051 46.8499 83.0442 32.8008 83.0442" stroke="white" stroke-width="4" stroke-miterlimit="10" stroke-linejoin="round"/>
</g>
<path d="M129.05 80C128.25 80 127.55 79.7667 126.95 79.3C126.35 78.8 126.05 78.1833 126.05 77.45V47.55C126.05 46.8167 126.3 46.2167 126.8 45.75C127.3 45.25 127.9 45 128.6 45H142.7C144.5 45 146.15 45.45 147.65 46.35C149.15 47.2167 150.35 48.4333 151.25 50C152.183 51.5333 152.65 53.3 152.65 55.3C152.65 56.6333 152.383 57.9167 151.85 59.15C151.317 60.35 150.6 61.4167 149.7 62.35C148.8 63.2833 147.783 63.9833 146.65 64.45L146.1 63.5C147.133 63.8667 148.033 64.4 148.8 65.1C149.567 65.7667 150.167 66.5667 150.6 67.5C151.067 68.4 151.317 69.4333 151.35 70.6C151.45 71.6333 151.533 72.5 151.6 73.2C151.7 73.8667 151.833 74.4167 152 74.85C152.167 75.2833 152.467 75.6167 152.9 75.85C153.5 76.1833 153.867 76.6833 154 77.35C154.167 78.0167 154.033 78.6167 153.6 79.15C153.3 79.55 152.917 79.8167 152.45 79.95C152.017 80.05 151.567 80.0667 151.1 80C150.633 79.9 150.233 79.7667 149.9 79.6C149.367 79.2667 148.817 78.8 148.25 78.2C147.717 77.5667 147.283 76.7 146.95 75.6C146.617 74.5 146.45 73.05 146.45 71.25C146.45 70.4167 146.317 69.7 146.05 69.1C145.783 68.5 145.417 68.0167 144.95 67.65C144.483 67.25 143.933 66.9667 143.3 66.8C142.667 66.6 141.967 66.5 141.2 66.5H130.6L131.3 65.5V77.45C131.3 78.1833 131.1 78.8 130.7 79.3C130.3 79.7667 129.75 80 129.05 80ZM130.65 62.15H142.6C143.367 62.1167 144.1 61.8167 144.8 61.25C145.533 60.65 146.117 59.85 146.55 58.85C147.017 57.85 147.25 56.7167 147.25 55.45C147.25 53.85 146.767 52.5167 145.8 51.45C144.867 50.35 143.75 49.8 142.45 49.8H130.75L131.3 48.5V63.2L130.65 62.15ZM171.539 80.5C168.772 80.5 166.372 79.9333 164.339 78.8C162.306 77.6333 160.722 76.05 159.589 74.05C158.489 72.0167 157.939 69.7 157.939 67.1C157.939 64.1667 158.522 61.6667 159.689 59.6C160.889 57.5 162.439 55.9 164.339 54.8C166.239 53.6667 168.256 53.1 170.389 53.1C172.022 53.1 173.572 53.4333 175.039 54.1C176.506 54.7333 177.806 55.6333 178.939 56.8C180.106 57.9333 181.022 59.2833 181.689 60.85C182.356 62.3833 182.706 64.0667 182.739 65.9C182.706 66.5667 182.439 67.1167 181.939 67.55C181.439 67.9833 180.856 68.2 180.189 68.2H160.739L159.539 63.95H178.339L177.389 64.85V63.6C177.322 62.4333 176.939 61.4167 176.239 60.55C175.539 59.65 174.672 58.9667 173.639 58.5C172.606 58 171.522 57.75 170.389 57.75C169.389 57.75 168.422 57.9167 167.489 58.25C166.589 58.55 165.772 59.05 165.039 59.75C164.339 60.45 163.772 61.3833 163.339 62.55C162.939 63.6833 162.739 65.1 162.739 66.8C162.739 68.6333 163.122 70.2333 163.889 71.6C164.656 72.9667 165.689 74.0333 166.989 74.8C168.289 75.5333 169.722 75.9 171.289 75.9C172.522 75.9 173.539 75.7833 174.339 75.55C175.139 75.2833 175.806 74.9667 176.339 74.6C176.872 74.2333 177.339 73.8833 177.739 73.55C178.239 73.25 178.739 73.1 179.239 73.1C179.839 73.1 180.339 73.3167 180.739 73.75C181.139 74.15 181.339 74.6333 181.339 75.2C181.339 75.9333 180.972 76.6 180.239 77.2C179.339 78.0667 178.089 78.8333 176.489 79.5C174.922 80.1667 173.272 80.5 171.539 80.5ZM200.041 53.1C201.841 53.1 203.441 53.3 204.841 53.7C206.241 54.0667 207.324 54.6 208.091 55.3C208.891 55.9667 209.291 56.75 209.291 57.65C209.291 58.2167 209.124 58.75 208.791 59.25C208.457 59.7167 207.957 59.95 207.291 59.95C206.824 59.95 206.424 59.8667 206.091 59.7C205.791 59.5333 205.507 59.3333 205.241 59.1C204.974 58.8667 204.641 58.6333 204.241 58.4C203.874 58.2 203.324 58.0333 202.591 57.9C201.891 57.7667 201.257 57.7 200.691 57.7C198.924 57.7 197.391 58.1 196.091 58.9C194.824 59.7 193.824 60.7833 193.091 62.15C192.391 63.5167 192.041 65.0667 192.041 66.8C192.041 68.5333 192.391 70.0833 193.091 71.45C193.824 72.8167 194.807 73.9 196.041 74.7C197.307 75.5 198.774 75.9 200.441 75.9C201.441 75.9 202.257 75.8333 202.891 75.7C203.524 75.5333 204.074 75.3333 204.541 75.1C205.041 74.8 205.457 74.5 205.791 74.2C206.157 73.8667 206.657 73.7 207.291 73.7C208.024 73.7 208.574 73.9333 208.941 74.4C209.341 74.8333 209.541 75.3833 209.541 76.05C209.541 76.7833 209.091 77.5 208.191 78.2C207.324 78.8667 206.157 79.4167 204.691 79.85C203.224 80.2833 201.607 80.5 199.841 80.5C197.241 80.5 194.974 79.9 193.041 78.7C191.141 77.5 189.657 75.8667 188.591 73.8C187.557 71.7333 187.041 69.4 187.041 66.8C187.041 64.1667 187.591 61.8333 188.691 59.8C189.791 57.7333 191.324 56.1 193.291 54.9C195.257 53.7 197.507 53.1 200.041 53.1ZM239.518 66.85C239.518 69.5167 238.935 71.8833 237.768 73.95C236.602 75.9833 235.018 77.5833 233.018 78.75C231.018 79.9167 228.768 80.5 226.268 80.5C223.768 80.5 221.518 79.9167 219.518 78.75C217.518 77.5833 215.918 75.9833 214.718 73.95C213.552 71.8833 212.968 69.5167 212.968 66.85C212.968 64.15 213.552 61.7833 214.718 59.75C215.918 57.6833 217.518 56.0667 219.518 54.9C221.518 53.7 223.768 53.1 226.268 53.1C228.768 53.1 231.018 53.7 233.018 54.9C235.018 56.0667 236.602 57.6833 237.768 59.75C238.935 61.7833 239.518 64.15 239.518 66.85ZM234.518 66.85C234.518 65.0167 234.152 63.4333 233.418 62.1C232.685 60.7333 231.685 59.6667 230.418 58.9C229.185 58.1 227.802 57.7 226.268 57.7C224.735 57.7 223.335 58.1 222.068 58.9C220.802 59.6667 219.802 60.7333 219.068 62.1C218.335 63.4333 217.968 65.0167 217.968 66.85C217.968 68.6167 218.335 70.1833 219.068 71.55C219.802 72.9167 220.802 73.9833 222.068 74.75C223.335 75.5167 224.735 75.9 226.268 75.9C227.802 75.9 229.185 75.5167 230.418 74.75C231.685 73.9833 232.685 72.9167 233.418 71.55C234.152 70.1833 234.518 68.6167 234.518 66.85ZM258.378 53.25C260.844 53.25 262.744 53.8667 264.078 55.1C265.411 56.3 266.294 57.9333 266.728 60L265.928 59.75L266.278 58.95C266.711 58.0833 267.361 57.2167 268.228 56.35C269.128 55.45 270.194 54.7167 271.428 54.15C272.661 53.55 273.978 53.25 275.378 53.25C277.678 53.25 279.461 53.75 280.728 54.75C281.994 55.7167 282.878 57.0333 283.378 58.7C283.878 60.3333 284.128 62.1667 284.128 64.2V77.45C284.128 78.1833 283.894 78.8 283.428 79.3C282.961 79.7667 282.361 80 281.628 80C280.928 80 280.328 79.7667 279.828 79.3C279.361 78.8 279.128 78.1833 279.128 77.45V64.25C279.128 63.0833 278.961 62.0167 278.628 61.05C278.328 60.0833 277.778 59.3167 276.978 58.75C276.211 58.15 275.144 57.85 273.778 57.85C272.478 57.85 271.311 58.15 270.278 58.75C269.278 59.3167 268.494 60.0833 267.928 61.05C267.361 62.0167 267.078 63.0833 267.078 64.25V77.45C267.078 78.1833 266.844 78.8 266.378 79.3C265.911 79.7667 265.311 80 264.578 80C263.844 80 263.244 79.7667 262.778 79.3C262.311 78.8 262.078 78.1833 262.078 77.45V64.2C262.078 63.0333 261.911 61.9667 261.578 61C261.278 60.0333 260.744 59.2667 259.978 58.7C259.211 58.1333 258.144 57.85 256.778 57.85C255.478 57.85 254.328 58.1333 253.328 58.7C252.328 59.2667 251.544 60.0333 250.978 61C250.444 61.9667 250.178 63.0333 250.178 64.2V77.45C250.178 78.1833 249.928 78.8 249.428 79.3C248.961 79.7667 248.378 80 247.678 80C246.944 80 246.344 79.7667 245.878 79.3C245.411 78.8 245.178 78.1833 245.178 77.45V56.25C245.178 55.5167 245.411 54.9167 245.878 54.45C246.344 53.95 246.944 53.7 247.678 53.7C248.378 53.7 248.961 53.95 249.428 54.45C249.928 54.9167 250.178 55.5167 250.178 56.25V59.2L249.228 59.75C249.461 59.0167 249.844 58.2667 250.378 57.5C250.911 56.7333 251.578 56.0333 252.378 55.4C253.211 54.7667 254.128 54.25 255.128 53.85C256.128 53.45 257.211 53.25 258.378 53.25ZM304.325 53.25C306.792 53.25 308.692 53.8667 310.025 55.1C311.358 56.3 312.242 57.9333 312.675 60L311.875 59.75L312.225 58.95C312.658 58.0833 313.308 57.2167 314.175 56.35C315.075 55.45 316.142 54.7167 317.375 54.15C318.608 53.55 319.925 53.25 321.325 53.25C323.625 53.25 325.408 53.75 326.675 54.75C327.942 55.7167 328.825 57.0333 329.325 58.7C329.825 60.3333 330.075 62.1667 330.075 64.2V77.45C330.075 78.1833 329.842 78.8 329.375 79.3C328.908 79.7667 328.308 80 327.575 80C326.875 80 326.275 79.7667 325.775 79.3C325.308 78.8 325.075 78.1833 325.075 77.45V64.25C325.075 63.0833 324.908 62.0167 324.575 61.05C324.275 60.0833 323.725 59.3167 322.925 58.75C322.158 58.15 321.092 57.85 319.725 57.85C318.425 57.85 317.258 58.15 316.225 58.75C315.225 59.3167 314.442 60.0833 313.875 61.05C313.308 62.0167 313.025 63.0833 313.025 64.25V77.45C313.025 78.1833 312.792 78.8 312.325 79.3C311.858 79.7667 311.258 80 310.525 80C309.792 80 309.192 79.7667 308.725 79.3C308.258 78.8 308.025 78.1833 308.025 77.45V64.2C308.025 63.0333 307.858 61.9667 307.525 61C307.225 60.0333 306.692 59.2667 305.925 58.7C305.158 58.1333 304.092 57.85 302.725 57.85C301.425 57.85 300.275 58.1333 299.275 58.7C298.275 59.2667 297.492 60.0333 296.925 61C296.392 61.9667 296.125 63.0333 296.125 64.2V77.45C296.125 78.1833 295.875 78.8 295.375 79.3C294.908 79.7667 294.325 80 293.625 80C292.892 80 292.292 79.7667 291.825 79.3C291.358 78.8 291.125 78.1833 291.125 77.45V56.25C291.125 55.5167 291.358 54.9167 291.825 54.45C292.292 53.95 292.892 53.7 293.625 53.7C294.325 53.7 294.908 53.95 295.375 54.45C295.875 54.9167 296.125 55.5167 296.125 56.25V59.2L295.175 59.75C295.408 59.0167 295.792 58.2667 296.325 57.5C296.858 56.7333 297.525 56.0333 298.325 55.4C299.158 54.7667 300.075 54.25 301.075 53.85C302.075 53.45 303.158 53.25 304.325 53.25ZM349.322 80.5C346.556 80.5 344.156 79.9333 342.122 78.8C340.089 77.6333 338.506 76.05 337.372 74.05C336.272 72.0167 335.722 69.7 335.722 67.1C335.722 64.1667 336.306 61.6667 337.472 59.6C338.672 57.5 340.222 55.9 342.122 54.8C344.022 53.6667 346.039 53.1 348.172 53.1C349.806 53.1 351.356 53.4333 352.822 54.1C354.289 54.7333 355.589 55.6333 356.722 56.8C357.889 57.9333 358.806 59.2833 359.472 60.85C360.139 62.3833 360.489 64.0667 360.522 65.9C360.489 66.5667 360.222 67.1167 359.722 67.55C359.222 67.9833 358.639 68.2 357.972 68.2H338.522L337.322 63.95H356.122L355.172 64.85V63.6C355.106 62.4333 354.722 61.4167 354.022 60.55C353.322 59.65 352.456 58.9667 351.422 58.5C350.389 58 349.306 57.75 348.172 57.75C347.172 57.75 346.206 57.9167 345.272 58.25C344.372 58.55 343.556 59.05 342.822 59.75C342.122 60.45 341.556 61.3833 341.122 62.55C340.722 63.6833 340.522 65.1 340.522 66.8C340.522 68.6333 340.906 70.2333 341.672 71.6C342.439 72.9667 343.472 74.0333 344.772 74.8C346.072 75.5333 347.506 75.9 349.072 75.9C350.306 75.9 351.322 75.7833 352.122 75.55C352.922 75.2833 353.589 74.9667 354.122 74.6C354.656 74.2333 355.122 73.8833 355.522 73.55C356.022 73.25 356.522 73.1 357.022 73.1C357.622 73.1 358.122 73.3167 358.522 73.75C358.922 74.15 359.122 74.6333 359.122 75.2C359.122 75.9333 358.756 76.6 358.022 77.2C357.122 78.0667 355.872 78.8333 354.272 79.5C352.706 80.1667 351.056 80.5 349.322 80.5ZM379.724 53.1C382.09 53.1 383.924 53.6 385.224 54.6C386.524 55.5667 387.424 56.8833 387.924 58.55C388.457 60.1833 388.724 62.0167 388.724 64.05V77.45C388.724 78.1833 388.474 78.8 387.974 79.3C387.507 79.7667 386.924 80 386.224 80C385.49 80 384.89 79.7667 384.424 79.3C383.957 78.8 383.724 78.1833 383.724 77.45V64.1C383.724 62.9 383.557 61.8333 383.224 60.9C382.89 59.9333 382.307 59.1667 381.474 58.6C380.674 58 379.54 57.7 378.074 57.7C376.707 57.7 375.507 58 374.474 58.6C373.44 59.1667 372.624 59.9333 372.024 60.9C371.457 61.8333 371.174 62.9 371.174 64.1V77.45C371.174 78.1833 370.924 78.8 370.424 79.3C369.957 79.7667 369.374 80 368.674 80C367.94 80 367.34 79.7667 366.874 79.3C366.407 78.8 366.174 78.1833 366.174 77.45V56.25C366.174 55.5167 366.407 54.9167 366.874 54.45C367.34 53.95 367.94 53.7 368.674 53.7C369.374 53.7 369.957 53.95 370.424 54.45C370.924 54.9167 371.174 55.5167 371.174 56.25V59.05L370.274 59.55C370.507 58.8167 370.907 58.0833 371.474 57.35C372.074 56.5833 372.79 55.8833 373.624 55.25C374.457 54.5833 375.39 54.0667 376.424 53.7C377.457 53.3 378.557 53.1 379.724 53.1ZM417.216 43C417.949 43 418.549 43.2333 419.016 43.7C419.483 44.1667 419.716 44.7833 419.716 45.55V77.45C419.716 78.1833 419.483 78.8 419.016 79.3C418.549 79.7667 417.949 80 417.216 80C416.516 80 415.916 79.7667 415.416 79.3C414.949 78.8 414.716 78.1833 414.716 77.45V73.85L415.766 73.9C415.766 74.5 415.516 75.1833 415.016 75.95C414.549 76.6833 413.899 77.4 413.066 78.1C412.233 78.8 411.249 79.3833 410.116 79.85C408.983 80.2833 407.766 80.5 406.466 80.5C404.166 80.5 402.099 79.9167 400.266 78.75C398.433 77.55 396.983 75.9333 395.916 73.9C394.849 71.8333 394.316 69.4667 394.316 66.8C394.316 64.1333 394.849 61.7833 395.916 59.75C396.983 57.6833 398.416 56.0667 400.216 54.9C402.049 53.7 404.083 53.1 406.316 53.1C407.716 53.1 409.016 53.3333 410.216 53.8C411.449 54.2667 412.516 54.8667 413.416 55.6C414.316 56.3333 415.016 57.1167 415.516 57.95C416.016 58.75 416.266 59.5167 416.266 60.25L414.716 60.4V45.55C414.716 44.8167 414.949 44.2167 415.416 43.75C415.916 43.25 416.516 43 417.216 43ZM407.016 75.9C408.616 75.9 409.999 75.5 411.166 74.7C412.366 73.9 413.299 72.8167 413.966 71.45C414.633 70.0833 414.966 68.5333 414.966 66.8C414.966 65.0667 414.633 63.5167 413.966 62.15C413.299 60.7833 412.366 59.7 411.166 58.9C409.966 58.1 408.583 57.7 407.016 57.7C405.483 57.7 404.116 58.1 402.916 58.9C401.749 59.7 400.816 60.7833 400.116 62.15C399.449 63.5167 399.116 65.0667 399.116 66.8C399.116 68.5333 399.449 70.0833 400.116 71.45C400.816 72.8167 401.749 73.9 402.916 74.7C404.116 75.5 405.483 75.9 407.016 75.9ZM438.971 80.5C436.204 80.5 433.804 79.9333 431.771 78.8C429.737 77.6333 428.154 76.05 427.021 74.05C425.921 72.0167 425.371 69.7 425.371 67.1C425.371 64.1667 425.954 61.6667 427.121 59.6C428.321 57.5 429.871 55.9 431.771 54.8C433.671 53.6667 435.687 53.1 437.821 53.1C439.454 53.1 441.004 53.4333 442.471 54.1C443.937 54.7333 445.237 55.6333 446.371 56.8C447.537 57.9333 448.454 59.2833 449.121 60.85C449.787 62.3833 450.137 64.0667 450.171 65.9C450.137 66.5667 449.871 67.1167 449.371 67.55C448.871 67.9833 448.287 68.2 447.621 68.2H428.171L426.971 63.95H445.771L444.821 64.85V63.6C444.754 62.4333 444.371 61.4167 443.671 60.55C442.971 59.65 442.104 58.9667 441.071 58.5C440.037 58 438.954 57.75 437.821 57.75C436.821 57.75 435.854 57.9167 434.921 58.25C434.021 58.55 433.204 59.05 432.471 59.75C431.771 60.45 431.204 61.3833 430.771 62.55C430.371 63.6833 430.171 65.1 430.171 66.8C430.171 68.6333 430.554 70.2333 431.321 71.6C432.087 72.9667 433.121 74.0333 434.421 74.8C435.721 75.5333 437.154 75.9 438.721 75.9C439.954 75.9 440.971 75.7833 441.771 75.55C442.571 75.2833 443.237 74.9667 443.771 74.6C444.304 74.2333 444.771 73.8833 445.171 73.55C445.671 73.25 446.171 73.1 446.671 73.1C447.271 73.1 447.771 73.3167 448.171 73.75C448.571 74.15 448.771 74.6333 448.771 75.2C448.771 75.9333 448.404 76.6 447.671 77.2C446.771 78.0667 445.521 78.8333 443.921 79.5C442.354 80.1667 440.704 80.5 438.971 80.5ZM477.372 43C478.106 43 478.706 43.2333 479.172 43.7C479.639 44.1667 479.872 44.7833 479.872 45.55V77.45C479.872 78.1833 479.639 78.8 479.172 79.3C478.706 79.7667 478.106 80 477.372 80C476.672 80 476.072 79.7667 475.572 79.3C475.106 78.8 474.872 78.1833 474.872 77.45V73.85L475.922 73.9C475.922 74.5 475.672 75.1833 475.172 75.95C474.706 76.6833 474.056 77.4 473.222 78.1C472.389 78.8 471.406 79.3833 470.272 79.85C469.139 80.2833 467.922 80.5 466.622 80.5C464.322 80.5 462.256 79.9167 460.422 78.75C458.589 77.55 457.139 75.9333 456.072 73.9C455.006 71.8333 454.472 69.4667 454.472 66.8C454.472 64.1333 455.006 61.7833 456.072 59.75C457.139 57.6833 458.572 56.0667 460.372 54.9C462.206 53.7 464.239 53.1 466.472 53.1C467.872 53.1 469.172 53.3333 470.372 53.8C471.606 54.2667 472.672 54.8667 473.572 55.6C474.472 56.3333 475.172 57.1167 475.672 57.95C476.172 58.75 476.422 59.5167 476.422 60.25L474.872 60.4V45.55C474.872 44.8167 475.106 44.2167 475.572 43.75C476.072 43.25 476.672 43 477.372 43ZM467.172 75.9C468.772 75.9 470.156 75.5 471.322 74.7C472.522 73.9 473.456 72.8167 474.122 71.45C474.789 70.0833 475.122 68.5333 475.122 66.8C475.122 65.0667 474.789 63.5167 474.122 62.15C473.456 60.7833 472.522 59.7 471.322 58.9C470.122 58.1 468.739 57.7 467.172 57.7C465.639 57.7 464.272 58.1 463.072 58.9C461.906 59.7 460.972 60.7833 460.272 62.15C459.606 63.5167 459.272 65.0667 459.272 66.8C459.272 68.5333 459.606 70.0833 460.272 71.45C460.972 72.8167 461.906 73.9 463.072 74.7C464.272 75.5 465.639 75.9 467.172 75.9Z" fill="white"/>
<defs>
<clipPath id="clip0_218_12">
<rect width="65" height="65" fill="white" transform="translate(25 31)"/>
</clipPath>
</defs>
</svg>
