<svg width="60" height="60" viewBox="0 0 60 60" fill="none" xmlns="http://www.w3.org/2000/svg">
<path d="M55 19L47.5 25.5V29.5L55 36V19Z" fill="#FFA500" fill-opacity="0.5" stroke="black"/>
<path d="M29.95 6.92999H4V26.73H6.25V9.67999H29.95V6.92999Z" fill="#001F3F"/>
<path d="M55.9 16.3717L48.625 23.43V15.8217H11.275V40.0217H27.475L20.275 50.2883L22 52.03L29.95 40.755L37.825 52.1217L39.55 50.2883L32.35 40.0217H48.55V32.4133L55.825 39.38V16.3717H55.9ZM46.375 37.2717H30.475L29.95 36.4467L29.425 37.18H13.525V18.5717H46.375V37.2717ZM53.65 33.6967L48.625 28.93V26.9133L53.65 22.055V33.6967Z" fill="#001F3F"/>
</svg>
