<!DOCTYPE svg PUBLIC "-//W3C//DTD SVG 1.1//EN" "http://www.w3.org/Graphics/SVG/1.1/DTD/svg11.dtd">

<!-- Uploaded to: SVG Repo, www.svgrepo.com, Transformed by: SVG Repo Mixer Tools -->
<svg fill="#66598f" width="17px" height="17px" viewBox="0 0 32 32" version="1.1" xmlns="http://www.w3.org/2000/svg" stroke="#66598f" stroke-width="1.056">

<g id="SVGRepo_bgCarrier" stroke-width="0"/>

<g id="SVGRepo_tracerCarrier" stroke-linecap="round" stroke-linejoin="round"/>

<g id="SVGRepo_iconCarrier"> <title>bug</title> <path d="M29.006 18.174h-4.342c-0.1-1.616-0.538-3.11-1.242-4.44l0.029 0.059 4.104-2.54c0.215-0.134 0.355-0.37 0.355-0.638v-4.615c0-0.414-0.336-0.75-0.75-0.75s-0.75 0.336-0.75 0.75v0 4.197l-3.763 2.329c-1.482-2.129-3.894-3.522-6.634-3.587l-0.010-0c-2.736 0.063-5.137 1.442-6.602 3.526l-0.018 0.026-3.707-2.295v-4.197c0-0.414-0.336-0.75-0.75-0.75s-0.75 0.336-0.75 0.75v0 4.615c0 0.268 0.141 0.503 0.352 0.636l0.003 0.002 4.041 2.502c-0.687 1.281-1.131 2.788-1.23 4.388l-0.002 0.031h-4.262c-0.414 0-0.75 0.336-0.75 0.75s0.336 0.75 0.75 0.75v0h4.262c0.101 1.666 0.561 3.204 1.303 4.566l-0.028-0.057-4.071 2.402c-0.222 0.133-0.369 0.373-0.369 0.646v0 2.77c0 0.414 0.336 0.75 0.75 0.75s0.75-0.336 0.75-0.75v0-2.342l3.766-2.221c1.485 2.065 3.859 3.409 6.55 3.469l0.009 0c2.714-0.062 5.099-1.42 6.566-3.477l0.017-0.025 3.824 2.255v2.342c0 0.414 0.336 0.75 0.75 0.75s0.75-0.336 0.75-0.75v0-2.77c-0-0.274-0.147-0.513-0.366-0.645l-0.003-0.002-4.134-2.439c0.703-1.295 1.157-2.82 1.256-4.441l0.002-0.031h4.342c0.414 0 0.75-0.336 0.75-0.75s-0.336-0.75-0.75-0.75v0zM16.003 27.406c-3.985 0-7.228-3.805-7.228-8.482s3.242-8.484 7.228-8.484 7.228 3.806 7.228 8.484c0 4.678-3.242 8.482-7.228 8.482zM12 7.25h8c0.414-0 0.75-0.336 0.75-0.75v0c0.011-0.121 0.017-0.261 0.017-0.403 0-2.633-2.134-4.767-4.767-4.767s-4.767 2.134-4.767 4.767c0 0.142 0.006 0.282 0.018 0.421l-0.001-0.018c0 0.414 0.336 0.75 0.75 0.75v0zM16 2.75c1.691 0.018 3.071 1.328 3.199 2.989l0.001 0.011h-6.397c0.127-1.672 1.507-2.983 3.197-3h0.002z"/> </g>

</svg>