<svg width="60" height="60" viewBox="0 0 60 60" fill="none" xmlns="http://www.w3.org/2000/svg">
<path d="M25.5 41.5L18.5 35L48 5.5L54.5 12L25.5 41.5Z" fill="#FFA500" fill-opacity="0.5" stroke="black"/>
<path d="M46.35 53.85H6.3V13.8H26.325V11.55H4.05V56.1H48.6V31.125H46.35V53.85Z" fill="#001F3F"/>
<path d="M16.95 34.65L15.375 44.475L25.2 42.9L26.175 41.85L56.025 12.075L47.775 3.89999L18 33.675L16.95 34.65ZM18.975 36.225L23.55 40.875L18 41.775L18.975 36.225ZM52.8 12.075L49.875 15.075L44.925 10.05L47.925 7.12499L52.8 12.075ZM43.275 11.625L48.3 16.65L25.35 39.525L20.4 34.5L43.275 11.625Z" fill="#001F3F"/>
</svg>
